# xmcd
#
# Track frame offsets:
#	150
#	20250
#	38572
#	53650
#	66112
#	88687
#	101065
#	124100
#	142087
#	166750
#	186125
#	198262
#	217800
#	237935
#	253250
#
# Disc length: 3631 seconds
# Revision: 7
# Processed by: cddbd v1.5.2PL0 Copyright (c) Steve Scherf et al.
# Submitted via: dBpowerAMP V12.0
#
DISCID=ca0e2d0f
DTITLE=Various Artist - Con alma de blues
DYEAR=1995
DGENRE=Blues
TTITLE0=Diane Schuur and B. B. King - I cant stop loving you
TTITLE1=Tina Turner - Steamy windows
TTITLE2=Gary Moore - Parisienne walkways
TTITLE3=Muddy Waters - I'm your hoochie coochie man
TTITLE4=Texas - I don't want a lover
TTITLE5=Nina Simone - Don't let me be misunderstood
TTITLE6=B. B. King - The trill is gone
TTITLE7=Rod Stewart - Bring it home to me
TTITLE8=Johnny Winter - Rain
TTITLE9=Glenn Frey - Smuggler's blues
TTITLE10=John Lee Hooker - Boom boom
TTITLE11=Ted Hawkins - Strange conversation
TTITLE12=Zucchero - Senza una donna
TTITLE13=Canned Heat - On the road again
TTITLE14=Joe Cocker - You can leave your hat on
EXTD=
EXTT0=
EXTT1=
EXTT2=
EXTT3=
EXTT4=
EXTT5=
EXTT6=
EXTT7=
EXTT8=
EXTT9=
EXTT10=
EXTT11=
EXTT12=
EXTT13=
EXTT14=
PLAYORDER=
